<svg xmlns="http://www.w3.org/2000/svg" width="410" height="404" viewBox="0 0 410 404" fill="none">
  <defs>
    <linearGradient id="vite-grad" x1="6.00017" y1="32.9999" x2="235" y2="344" gradientUnits="userSpaceOnUse">
      <stop stop-color="#41D1FF"/>
      <stop offset="1" stop-color="#BD34FE"/>
    </linearGradient>
  </defs>
  <path d="M399.641 59.524C402.791 52.5003 399.979 44.3736 392.955 41.2235L336.69 15.6929C330.08 12.7392 322.37 15.4475 319.296 21.9895L173.865 337.5C170.627 344.387 173.731 352.536 180.618 355.774C187.164 358.826 195.114 356.419 198.739 350.236L399.641 59.524Z" fill="url(#vite-grad)"/>
  <path d="M255.018 9.16131C259.632 2.59175 268.591 0.87206 275.161 5.486L335.598 48.0094C341.99 52.4759 343.843 61.1028 339.377 67.4951L186.25 286.5C182.171 292.304 174.266 294.03 168.315 290.573C162.364 287.116 160.263 279.256 164.342 273.452L255.018 9.16131Z" fill="#FFEA83"/>
</svg>





